<svg xmlns="http://www.w3.org/2000/svg" version="1.1" xmlns:xlink="http://www.w3.org/1999/xlink" xmlns:svgjs="http://svgjs.dev/svgjs" width="1000" height="623" viewBox="0 0 1000 623"><g transform="matrix(1,0,0,1,-0.6060606060606233,0.2522267206477409)"><svg viewBox="0 0 396 247" data-background-color="#00ffef" preserveAspectRatio="xMidYMid meet" height="623" width="1000" xmlns="http://www.w3.org/2000/svg" xmlns:xlink="http://www.w3.org/1999/xlink"><g id="tight-bounds" transform="matrix(1,0,0,1,0.2400000000000091,-0.09999999999999432)"><svg viewBox="0 0 395.52 247.2" height="247.2" width="395.52"><g><svg></svg></g><g><svg viewBox="0 0 395.52 247.2" height="247.2" width="395.52"><g transform="matrix(1,0,0,1,75.54432000000001,103.79169732193732)"><svg viewBox="0 0 244.43135999999996 39.61660535612535" height="39.61660535612535" width="244.43135999999996"><g><svg viewBox="0 0 244.43135999999996 39.61660535612535" height="39.61660535612535" width="244.43135999999996"><g><svg viewBox="0 0 244.43135999999996 39.61660535612535" height="39.61660535612535" width="244.43135999999996"><g><svg viewBox="0 0 244.43135999999996 39.61660535612535" height="39.61660535612535" width="244.43135999999996"><g id="textblocktransform"><svg viewBox="0 0 244.43135999999996 39.61660535612535" height="39.61660535612535" width="244.43135999999996" id="textblock"><g><svg viewBox="0 0 244.43135999999996 39.61660535612535" height="39.61660535612535" width="244.43135999999996"><g transform="matrix(1,0,0,1,0,0)"><svg width="244.43135999999996" viewBox="2.25 -36.5 231.36000061035156 37.5" height="39.61660535612535" data-palette-color="#374151"><path d="M10.4-32.59L10.4-1.49 18.51-1.76Q20.29-1.81 21.53-2.16 22.78-2.51 23.68-3.28 24.58-4.05 25.16-4.9 25.73-5.74 26.44-7.15L26.44-7.15 27.15-6.86 24.76-0.34 24.34 0 7.1 0Q6.64-1.03 6.64-2.39L6.64-2.39 6.64-28.1Q6.64-31.54 5.82-32.74 5-33.94 2.34-33.74L2.34-33.74 2.25-34.2Q6.27-35.4 9.91-35.4L9.91-35.4Q10.4-34.06 10.4-32.59L10.4-32.59ZM50-36.5L50-36.5Q58.15-36.5 62.55-31.35 66.94-26.2 66.94-17.09L66.94-17.09Q66.94-13.23 65.57-9.84 64.21-6.45 61.89-4.08 59.57-1.71 56.43-0.35 53.29 1 49.85 1L49.85 1Q46.24 1 43.14-0.28 40.04-1.56 37.75-3.93 35.47-6.3 34.18-9.9 32.88-13.5 32.88-17.9L32.88-17.9Q32.88-21.78 34.26-25.24 35.64-28.71 37.95-31.16 40.26-33.62 43.41-35.06 46.56-36.5 50-36.5ZM36.98-18.14L36.98-18.14Q36.98-14.55 37.75-11.56 38.52-8.57 39.82-6.52 41.11-4.47 42.86-3.05 44.6-1.64 46.53-0.99 48.46-0.34 50.53-0.34L50.53-0.34Q53.54-0.34 55.92-1.66 58.3-2.98 59.79-5.26 61.28-7.54 62.06-10.5 62.84-13.45 62.84-16.85L62.84-16.85Q62.84-21.26 61.73-24.8 60.62-28.34 58.74-30.53 56.86-32.71 54.48-33.86 52.1-35.01 49.44-35.01L49.44-35.01Q46.43-35.01 44.03-33.63 41.62-32.25 40.11-29.91 38.6-27.56 37.79-24.55 36.98-21.53 36.98-18.14ZM104.39-34.11L104.39 0 103.39 0Q101.73-2.25 93.87-12.17 86.01-22.09 82.64-26.54L82.64-26.54Q81.17-28.44 79.83-31.01L79.83-31.01 79.68-30.91 79.68-3.15Q79.68-2.22 80.28-1.71 80.88-1.2 81.6-1.01 82.32-0.83 83.59-0.61 84.86-0.39 85.08-0.34L85.08-0.34 85.08 0.15Q80.46-0.15 77.68 0.15L77.68 0.15Q77.53-0.51 77.53-1.15L77.53-1.15 77.53-29.25Q77.46-30.98 76.92-32.35L76.92-32.35Q76.22-34.25 73.68-34.06L73.68-34.06 73.68-34.55Q77.09-35.4 80.39-35.4L80.39-35.4 98.77-11.89Q100.07-10.25 100.84-8.95 101.61-7.64 102.34-5.69L102.34-5.69 102.34-31.1Q102.34-32.81 101.06-33.53 99.78-34.25 97.04-34.06L97.04-34.06 96.92-34.55Q100.09-35.33 103.97-35.4L103.97-35.4Q104.39-34.77 104.39-34.11L104.39-34.11ZM140.74-3.1L140.74-3.1 140.74-7.1Q140.74-10.55 139.91-11.73 139.08-12.92 136.42-12.74L136.42-12.74 136.32-13.21Q140.35-14.4 143.99-14.4L143.99-14.4Q144.47-13.06 144.47-11.6L144.47-11.6 144.47-4.59Q144.47-2.29 144.94-1.66L144.94-1.66 144.79-1.39Q142.86-1.39 140.62-0.79 138.37-0.2 135.81 0.4 133.24 1 130.58 1L130.58 1Q126.9 1 123.72-0.35 120.55-1.71 118.27-4.13 115.98-6.54 114.68-10.08 113.37-13.62 113.37-17.8L113.37-17.8Q113.37-21.63 114.41-24.77 115.45-27.91 117.24-30.05 119.04-32.2 121.55-33.68 124.06-35.16 126.96-35.83 129.85-36.5 133.12-36.5L133.12-36.5Q138.71-36.5 143.62-34.2L143.62-34.2Q142.77-31.15 141.18-27.76L141.18-27.76 140.52-28Q140.91-30.91 140.69-32.79L140.69-32.79Q139.62-33.4 138.57-33.8 137.52-34.2 136.35-34.44 135.17-34.67 133.82-34.75 132.46-34.84 130.78-34.84L130.78-34.84Q128.53-34.84 126.59-34.27 124.65-33.69 122.97-32.37 121.28-31.05 120.09-29.06 118.89-27.08 118.21-24.11 117.52-21.14 117.52-17.41L117.52-17.41Q117.52-13.82 118.74-10.64 119.96-7.47 121.98-5.3 123.99-3.13 126.63-1.87 129.26-0.61 132.07-0.61L132.07-0.61Q134.86-0.61 136.75-1.11 138.64-1.61 140.74-3.1ZM171.82-5.05L183.41-33.96Q185.17-35.25 187.22-35.6L187.22-35.6 190.47-4.39Q190.62-2.42 191.49-1.6 192.37-0.78 194.67-0.61L194.67-0.61 194.52 0Q191.71-0.07 190.15 0.05 188.59 0.17 186.83 0.76L186.83 0.76 186.66 0.49Q187.12-0.29 186.93-2.1L186.93-2.1 184.07-30.49 171.52 0.95 169.81 0.15Q169.72-1.59 168.42-4.76L168.42-4.76 157.27-29.44 154.41-3.39Q154.31-2.54 154.54-2.01 154.78-1.49 155.67-1.04 156.56-0.59 158.32-0.24L158.32-0.24 158.22 0.2Q154.21-0.1 151.97 0L151.97 0Q151.77-0.2 151.67-0.49L151.67-0.49 155.36-32.45Q154.68-33.01 153.68-33.04 152.68-33.08 151.77-32.86L151.77-32.86 151.48-33.35Q155.12-35.4 158.12-35.4L158.12-35.4Q158.71-34.08 164.7-20.75 170.69-7.42 171.82-5.05L171.82-5.05ZM199.4-0.49L214.32-33.84Q215.15-34.35 216.22-35.79L216.22-35.79 216.47-35.79 229.92-3.39Q230.82-1.22 233.61-0.34L233.61-0.34 233.61 0.1Q232.02-0.07 229.8 0.04 227.58 0.15 225.87 0.44L225.87 0.44 225.67 0.2Q226.16-0.44 225.9-1.93 225.65-3.42 224.4-6.45L224.4-6.45 220.37-16.55Q213.2-16.67 208.51-16.5L208.51-16.5 202.87-3.39Q202.36-2.27 203.25-1.51 204.14-0.76 206.75-0.24L206.75-0.24 206.65 0.2Q202.4-0.12 199.72 0L199.72 0Q199.57-0.15 199.4-0.49L199.4-0.49ZM214.66-30.69L209.17-17.94Q212.71-17.85 219.76-17.94L219.76-17.94 214.66-30.69Z" opacity="1" transform="matrix(1,0,0,1,0,0)" fill="#374151" class="wordmark-text-0" data-fill-palette-color="primary" id="text-0"></path></svg></g></svg></g></svg></g></svg></g></svg></g></svg></g></svg></g><path d="M183.273 97.792L183.273 35.393 6.858 35.393 6.858 211.807 183.273 211.807 183.273 149.408 179.7 149.408 179.7 208.235 10.431 208.235 10.431 38.965 179.7 38.965 179.7 97.792Z" fill="#374151" stroke="transparent" data-fill-palette-color="primary"></path></svg></g><defs></defs></svg><rect width="395.52" height="247.2" fill="none" stroke="none" visibility="hidden"></rect></g></svg></g></svg>